<?xml version="1.0" encoding="utf-8"?>
<!-- Generator: Adobe Illustrator 15.0.2, SVG Export Plug-In  -->
<!DOCTYPE svg PUBLIC "-//W3C//DTD SVG 1.1//EN" "http://www.w3.org/Graphics/SVG/1.1/DTD/svg11.dtd" [
	<!ENTITY ns_flows "http://ns.adobe.com/Flows/1.0/">
]>
<svg version="1.1"
	 xmlns="http://www.w3.org/2000/svg" xmlns:xlink="http://www.w3.org/1999/xlink" xmlns:a="http://ns.adobe.com/AdobeSVGViewerExtensions/3.0/"
	 x="0px" y="0px" width="584px" height="114px" viewBox="-2.153 -7.803 584 114" enable-background="new -2.153 -7.803 584 114"
	 xml:space="preserve">
<defs>
</defs>
<path d="M45.787,101.764c-14.736,0-26.051-4.306-33.945-12.917C3.947,80.234,0,67.844,0,51.671c0-8.037,1.005-15.261,3.014-21.673
	c2.01-6.41,4.975-11.842,8.899-16.291c3.923-4.449,8.707-7.845,14.354-10.19C31.911,1.173,38.417,0,45.787,0
	c7.271,0,13.754,1.173,19.449,3.517c5.692,2.346,10.453,5.766,14.282,10.262c3.826,4.499,6.746,9.976,8.755,16.435
	c2.009,6.459,3.014,13.757,3.014,21.889c0,16.46-3.9,28.851-11.698,37.175C71.789,97.602,60.521,101.764,45.787,101.764z
	 M45.787,84.684c3.539,0,6.89-0.646,10.047-1.938s5.907-3.252,8.253-5.885c2.343-2.631,4.185-6.004,5.526-10.119
	c1.339-4.113,2.009-8.993,2.009-14.641c0-11.289-2.202-19.854-6.603-25.692c-4.402-5.835-10.814-8.755-19.233-8.755
	c-8.421,0-14.88,2.92-19.376,8.755c-4.499,5.838-6.746,14.403-6.746,25.692c0,11.292,2.272,19.546,6.818,24.76
	C31.025,82.078,37.462,84.684,45.787,84.684z"/>
<path d="M96.739,98.463V3.157h46.935c9.376,0,16.506,2.321,21.386,6.962c4.88,4.642,7.32,10.979,7.32,19.018
	c0,4.115-1.101,7.775-3.301,10.98c-2.202,3.207-4.976,5.479-8.325,6.817c2.01,0.768,3.898,1.747,5.669,2.942
	c1.77,1.197,3.301,2.728,4.593,4.594c1.292,1.865,2.319,4.068,3.086,6.603c0.765,2.536,1.148,5.525,1.148,8.971
	c0,8.708-2.92,15.622-8.755,20.74c-5.837,5.12-14.784,7.679-26.84,7.679H96.739z M115.972,19.664v20.668h25.118
	c8.038,0,12.057-3.444,12.057-10.334c0-3.636-1.03-6.267-3.086-7.895c-2.059-1.626-5.432-2.439-10.119-2.439H115.972z
	 M141.234,82.244c4.593,0,8.181-1.292,10.765-3.876c2.583-2.583,3.875-5.835,3.875-9.76c0-4.21-1.27-7.271-3.804-9.187
	c-2.537-1.913-6.053-2.87-10.55-2.87h-25.548v25.692H141.234z"/>
<path d="M232.519,31.29c-0.479-4.881-2.249-8.516-5.311-10.909c-3.063-2.391-7.656-3.588-13.779-3.588
	c-11.292,0-16.937,3.875-16.937,11.626c0,2.776,1.171,5.096,3.517,6.961c2.344,1.866,6.1,3.423,11.267,4.665
	c6.123,1.436,11.434,2.776,15.932,4.02c4.497,1.244,8.612,2.68,12.344,4.306c2.104,0.861,4.091,1.938,5.957,3.229
	c1.866,1.292,3.445,2.896,4.737,4.809c1.292,1.915,2.319,4.212,3.086,6.89c0.765,2.68,1.148,5.934,1.148,9.76
	c0,4.593-0.958,8.661-2.871,12.2c-1.915,3.541-4.499,6.531-7.75,8.971c-3.254,2.44-7.083,4.306-11.483,5.598
	c-4.402,1.292-9.042,1.938-13.922,1.938c-13.875,0-24.306-2.68-31.29-8.037c-6.986-5.358-10.67-13.3-11.052-23.826h19.233
	c0.094,4.88,2.082,8.732,5.957,11.554c3.875,2.824,8.73,4.234,14.568,4.234c6.315,0,11.099-1.148,14.353-3.444
	c3.252-2.297,4.88-5.405,4.88-9.33c0-1.529-0.193-2.942-0.574-4.234c-0.384-1.291-1.126-2.462-2.225-3.517
	c-1.102-1.052-2.608-1.984-4.521-2.799c-1.915-0.812-4.402-1.554-7.464-2.225c-7.273-1.529-13.563-3.086-18.874-4.665
	c-5.311-1.578-9.688-3.539-13.133-5.885c-3.445-2.344-5.981-5.189-7.607-8.54c-1.628-3.349-2.44-7.607-2.44-12.774
	c0-3.922,0.718-7.607,2.153-11.052c1.436-3.445,3.636-6.435,6.603-8.971c2.965-2.534,6.625-4.544,10.98-6.028
	C202.353,0.742,207.495,0,213.429,0c5.741,0,10.908,0.742,15.501,2.225c4.593,1.484,8.54,3.588,11.841,6.315
	c3.301,2.727,5.86,6.028,7.679,9.903c1.817,3.876,2.821,8.159,3.014,12.847H232.519z"/>
<path d="M258.641,98.463V3.157h70.043v16.649h-50.667v20.382h46.648v16.794h-46.648v24.544h52.963v16.937H258.641z"/>
<path d="M389.828,98.463V73.919c0-4.593-1.054-7.869-3.157-9.832c-2.105-1.96-6.028-2.942-11.77-2.942h-21.243v37.318h-19.377V3.157
	h48.371c4.399,0,8.396,0.695,11.984,2.081c3.589,1.389,6.675,3.302,9.258,5.741c2.584,2.44,4.568,5.36,5.957,8.756
	c1.386,3.397,2.081,7.058,2.081,10.98c0,5.167-1.22,9.737-3.66,13.707c-2.44,3.972-5.957,6.771-10.55,8.396
	c4.21,1.342,7.199,3.398,8.971,6.172c1.77,2.776,2.655,6.939,2.655,12.487v26.984H389.828z M353.658,19.664v25.404h24.975
	c5.358,0,9.137-1.195,11.339-3.588c2.2-2.391,3.302-5.405,3.302-9.043c0-3.731-1.076-6.793-3.229-9.186
	c-2.153-2.391-5.719-3.588-10.693-3.588H353.658z"/>
<path fill="#E58824" d="M441.501,98.463L409.206,3.157h21.242l20.813,66.887L471.93,3.157h20.668l-32.294,95.306H441.501z"/>
<path d="M534.511,101.764c-14.736,0-26.051-4.306-33.945-12.917c-7.894-8.612-11.841-21.003-11.841-37.176
	c0-8.037,1.004-15.261,3.014-21.673c2.01-6.41,4.975-11.842,8.899-16.291c3.922-4.449,8.706-7.845,14.353-10.19
	C520.636,1.173,527.142,0,534.511,0c7.271,0,13.755,1.173,19.449,3.517c5.691,2.346,10.453,5.766,14.281,10.262
	c3.826,4.499,6.746,9.976,8.755,16.435c2.01,6.459,3.015,13.757,3.015,21.889c0,16.46-3.9,28.851-11.698,37.175
	C560.513,97.602,549.245,101.764,534.511,101.764z M534.511,84.684c3.539,0,6.89-0.646,10.048-1.938
	c3.157-1.292,5.907-3.252,8.253-5.885c2.344-2.631,4.185-6.004,5.525-10.119c1.339-4.113,2.01-8.993,2.01-14.641
	c0-11.289-2.202-19.854-6.603-25.692c-4.402-5.835-10.814-8.755-19.233-8.755c-8.421,0-14.88,2.92-19.377,8.755
	c-4.498,5.838-6.746,14.403-6.746,25.692c0,11.292,2.272,19.546,6.818,24.76C519.75,82.078,526.187,84.684,534.511,84.684z"/>
</svg>
